<?xml version="1.0" standalone="no"?>
<svg xmlns:xlink="http://www.w3.org/1999/xlink" id="wave" style="transform:rotate(0deg); transition: 0.3s" viewBox="0 0 1440 150" version="1.1" xmlns="http://www.w3.org/2000/svg"><defs><linearGradient id="sw-gradient-0" x1="0" x2="0" y1="1" y2="0"><stop stop-color="rgba(229, 248, 248, 1)" offset="0%"/><stop stop-color="rgba(229, 248, 248, 1)" offset="100%"/></linearGradient></defs><path style="transform:translate(0, 0px); opacity:1" fill="url(#sw-gradient-0)" d="M0,75L120,67.5C240,60,480,45,720,45C960,45,1200,60,1440,67.5C1680,75,1920,75,2160,80C2400,85,2640,95,2880,105C3120,115,3360,125,3600,115C3840,105,4080,75,4320,52.5C4560,30,4800,15,5040,12.5C5280,10,5520,20,5760,22.5C6000,25,6240,20,6480,37.5C6720,55,6960,95,7200,105C7440,115,7680,95,7920,85C8160,75,8400,75,8640,82.5C8880,90,9120,105,9360,115C9600,125,9840,130,10080,120C10320,110,10560,85,10800,77.5C11040,70,11280,80,11520,75C11760,70,12000,50,12240,57.5C12480,65,12720,100,12960,105C13200,110,13440,85,13680,62.5C13920,40,14160,20,14400,10C14640,0,14880,0,15120,10C15360,20,15600,40,15840,47.5C16080,55,16320,50,16560,52.5C16800,55,17040,65,17160,70L17280,75L17280,150L17160,150C17040,150,16800,150,16560,150C16320,150,16080,150,15840,150C15600,150,15360,150,15120,150C14880,150,14640,150,14400,150C14160,150,13920,150,13680,150C13440,150,13200,150,12960,150C12720,150,12480,150,12240,150C12000,150,11760,150,11520,150C11280,150,11040,150,10800,150C10560,150,10320,150,10080,150C9840,150,9600,150,9360,150C9120,150,8880,150,8640,150C8400,150,8160,150,7920,150C7680,150,7440,150,7200,150C6960,150,6720,150,6480,150C6240,150,6000,150,5760,150C5520,150,5280,150,5040,150C4800,150,4560,150,4320,150C4080,150,3840,150,3600,150C3360,150,3120,150,2880,150C2640,150,2400,150,2160,150C1920,150,1680,150,1440,150C1200,150,960,150,720,150C480,150,240,150,120,150L0,150Z"/></svg>