<?xml version="1.0" standalone="no"?>
<svg xmlns:xlink="http://www.w3.org/1999/xlink" id="wave" style="transform:rotate(180deg); transition: 0.3s" viewBox="0 0 1440 360" version="1.1" xmlns="http://www.w3.org/2000/svg"><defs><linearGradient id="sw-gradient-0" x1="0" x2="0" y1="1" y2="0"><stop stop-color="rgba(229, 248, 248, 1)" offset="0%"/><stop stop-color="rgba(229, 248, 248, 1)" offset="100%"/></linearGradient></defs><path style="transform:translate(0, 0px); opacity:1" fill="url(#sw-gradient-0)" d="M0,144L120,162C240,180,480,216,720,228C960,240,1200,228,1440,216C1680,204,1920,192,2160,204C2400,216,2640,252,2880,252C3120,252,3360,216,3600,204C3840,192,4080,204,4320,180C4560,156,4800,96,5040,96C5280,96,5520,156,5760,168C6000,180,6240,144,6480,126C6720,108,6960,108,7200,144C7440,180,7680,252,7920,288C8160,324,8400,324,8640,270C8880,216,9120,108,9360,108C9600,108,9840,216,10080,246C10320,276,10560,228,10800,186C11040,144,11280,108,11520,126C11760,144,12000,216,12240,252C12480,288,12720,288,12960,270C13200,252,13440,216,13680,204C13920,192,14160,204,14400,204C14640,204,14880,192,15120,186C15360,180,15600,180,15840,192C16080,204,16320,228,16560,204C16800,180,17040,108,17160,72L17280,36L17280,360L17160,360C17040,360,16800,360,16560,360C16320,360,16080,360,15840,360C15600,360,15360,360,15120,360C14880,360,14640,360,14400,360C14160,360,13920,360,13680,360C13440,360,13200,360,12960,360C12720,360,12480,360,12240,360C12000,360,11760,360,11520,360C11280,360,11040,360,10800,360C10560,360,10320,360,10080,360C9840,360,9600,360,9360,360C9120,360,8880,360,8640,360C8400,360,8160,360,7920,360C7680,360,7440,360,7200,360C6960,360,6720,360,6480,360C6240,360,6000,360,5760,360C5520,360,5280,360,5040,360C4800,360,4560,360,4320,360C4080,360,3840,360,3600,360C3360,360,3120,360,2880,360C2640,360,2400,360,2160,360C1920,360,1680,360,1440,360C1200,360,960,360,720,360C480,360,240,360,120,360L0,360Z"/></svg>