<?xml version="1.0" standalone="no"?>
<svg xmlns:xlink="http://www.w3.org/1999/xlink" id="wave" style="transform:rotate(180deg); transition: 0.3s" viewBox="0 0 1440 490" version="1.1" xmlns="http://www.w3.org/2000/svg"><defs><linearGradient id="sw-gradient-0" x1="0" x2="0" y1="1" y2="0"><stop stop-color="rgba(76, 147, 254, 1)" offset="0%"/><stop stop-color="rgba(76, 147, 254, 1)" offset="100%"/></linearGradient></defs><path style="transform:translate(0, 0px); opacity:1" fill="url(#sw-gradient-0)" d="M0,147L120,155.2C240,163,480,180,720,171.5C960,163,1200,131,1440,130.7C1680,131,1920,163,2160,204.2C2400,245,2640,294,2880,310.3C3120,327,3360,310,3600,261.3C3840,212,4080,131,4320,89.8C4560,49,4800,49,5040,65.3C5280,82,5520,114,5760,147C6000,180,6240,212,6480,253.2C6720,294,6960,343,7200,326.7C7440,310,7680,229,7920,228.7C8160,229,8400,310,8640,310.3C8880,310,9120,229,9360,236.8C9600,245,9840,343,10080,375.7C10320,408,10560,376,10800,367.5C11040,359,11280,376,11520,359.3C11760,343,12000,294,12240,245C12480,196,12720,147,12960,163.3C13200,180,13440,261,13680,302.2C13920,343,14160,343,14400,285.8C14640,229,14880,114,15120,122.5C15360,131,15600,261,15840,334.8C16080,408,16320,425,16560,359.3C16800,294,17040,147,17160,73.5L17280,0L17280,490L17160,490C17040,490,16800,490,16560,490C16320,490,16080,490,15840,490C15600,490,15360,490,15120,490C14880,490,14640,490,14400,490C14160,490,13920,490,13680,490C13440,490,13200,490,12960,490C12720,490,12480,490,12240,490C12000,490,11760,490,11520,490C11280,490,11040,490,10800,490C10560,490,10320,490,10080,490C9840,490,9600,490,9360,490C9120,490,8880,490,8640,490C8400,490,8160,490,7920,490C7680,490,7440,490,7200,490C6960,490,6720,490,6480,490C6240,490,6000,490,5760,490C5520,490,5280,490,5040,490C4800,490,4560,490,4320,490C4080,490,3840,490,3600,490C3360,490,3120,490,2880,490C2640,490,2400,490,2160,490C1920,490,1680,490,1440,490C1200,490,960,490,720,490C480,490,240,490,120,490L0,490Z"/></svg>